<svg width="100" height="100" viewBox="0 0 100 100" fill="none" xmlns="http://www.w3.org/2000/svg">
<g id="Hollow">
<path class="fractal-symbol" d="M49.5644 0C49.918 0 50.2715 0.105895 50.5898 0.282386L92.28 24.2852C92.5982 24.4617 92.8812 24.7088 93.058 25.0618C93.2348 25.4148 93.3408 25.7677 93.3408 26.1207V74.1264C93.3408 74.8676 92.9519 75.5383 92.28 75.9266L50.5898 99.7176C50.2715 99.8941 49.9179 100 49.529 100C49.14 100 48.7864 99.8941 48.4681 99.7176L7.02547 75.9619C6.38898 75.6089 6 74.9029 6 74.1617V26.156C6 25.803 6.07074 25.4148 6.2829 25.0971C6.2829 25.0971 6.28289 25.0618 6.31825 25.0618C6.53042 24.7441 6.77793 24.497 7.09617 24.3205L48.5742 0.317684C48.8571 0.105895 49.2107 0 49.5644 0ZM51.686 51.359V95.4818L90.1584 73.5263V29.227L51.686 51.359ZM9.18246 73.5263L47.4427 95.4818V51.359L9.18246 29.1917V73.5263ZM11.3041 25.556L49.5644 47.7233L88.0367 25.556L49.5644 3.38863L11.3041 25.556Z" fill="black"/>
</g>
</svg>
