<svg width="100" height="100" viewBox="0 0 100 100" fill="none" xmlns="http://www.w3.org/2000/svg">
<g id="Artist">
<g class="fractal-symbol">
<path id="Vector" d="M95.529 4.03963C91.8425 0.596535 87.6269 -0.941567 86.1135 0.596535C84.6 2.13464 86.3675 6.17392 90.0504 9.61701C93.7334 13.0601 97.9456 14.6053 99.4554 13.053C100.965 11.5008 99.212 7.48272 95.529 4.03963Z" fill="#1D1D1B"/>
<path id="Vector_2" d="M30.4949 79.1879C32.3364 80.3133 34.319 80.8142 35.5573 79.5407L43.276 71.6879C42.0342 72.9473 39.7694 72.778 38.2031 71.314L29.0309 62.7521C27.4611 61.2881 27.2 59.0973 28.4383 57.8344L20.7301 65.6978C19.4919 66.9607 20.0246 68.9292 21.3193 70.6155C23.9086 73.9527 26.8296 76.9513 30.4949 79.1879Z" fill="#1D1D1B"/>
<path id="Vector_3" d="M88.4278 11.2891C84.5472 7.6732 82.5964 3.46458 83.8099 1.56665C83.6836 1.66362 83.5656 1.771 83.4572 1.88768L30.0857 56.2151C28.8439 57.4745 29.1085 59.6688 30.6713 61.1328L39.8435 69.6947C41.4098 71.1587 43.6782 71.328 44.9164 70.0651L98.2878 15.7377C98.3954 15.6297 98.4923 15.5115 98.5771 15.3849C96.6615 16.602 92.2871 14.8769 88.4278 11.2891Z" fill="#1D1D1B"/>
<path id="Vector_4" d="M10.5524 95.8989C10.5524 95.8989 1.87417 98.5518 0.964005 96.3787C-4.49344 99.8182 14.7399 100.792 20.6242 99.3667C29.627 96.8973 40.1927 91.5739 48.8886 97.8074L50.2468 98.7634L51.7037 99.5713C42.274 85.7249 23.0583 88.5471 10.5524 95.8989Z" fill="#1D1D1B"/>
<path id="Vector_5" d="M15.4207 90.1698C15.9718 90.7205 16.7025 91.0549 17.4796 91.1119C18.2567 91.1688 19.0284 90.9447 19.654 90.4802L31.1086 81.7349C31.1462 81.7071 31.1816 81.6765 31.2144 81.6432C30.5089 81.4774 29.9092 80.9376 29.1683 80.5284C25.3478 78.4435 22.4656 75.4097 19.9962 71.9525C19.5093 71.2786 18.9661 70.7036 18.765 70.0051L18.6733 70.1145L10.2066 81.6503C9.33176 82.8391 9.39526 84.543 10.7076 85.7707L15.4207 90.1698Z" fill="#1D1D1B"/>
<path id="Vector_6" d="M10.5278 94.957L14.0026 91.4293L9.49767 87.2171L1.50025 95.3592C-0.704603 97.6099 9.85397 95.659 10.5278 94.957Z" fill="#1D1D1B"/>
</g>
</g>
</svg>
