<svg width="100" height="100" viewBox="0 0 100 100" fill="none" xmlns="http://www.w3.org/2000/svg">
<g id="RandomFromHandsize4">
<g class="fractal-symbol">
<path id="Vector" d="M29.2024 56.6843C27.1919 56.6843 25.5693 55.0617 25.5693 53.0511V25.679L14.8815 28.5361C13.5411 28.8889 12.7298 30.2645 13.0825 31.6402L25.7457 78.836L31.6716 56.6843H29.2024Z" fill="black"/>
<path id="Vector_2" d="M51.3189 34.4973C51.9538 33.3686 53.1884 32.6631 54.4582 32.6631C55.0931 32.6631 55.728 32.8395 56.2571 33.157L77.0684 45.1499L78.2677 40.7407C78.6205 39.4004 77.8444 37.9894 76.4688 37.6367L42.9238 28.642C42.7121 28.5714 42.5005 28.5714 42.2889 28.5714C41.1601 28.5714 40.1372 29.3121 39.855 30.4409L27.8973 75.0617L51.3189 34.4973Z" fill="black"/>
<path id="Vector_3" d="M54.4935 33.7919C54.9168 33.7919 55.3401 33.8977 55.7634 34.1446L85.8516 51.4991C87.0508 52.2046 87.4741 53.7566 86.7687 54.9559L61.5129 98.7301C61.0544 99.5414 60.2078 100 59.326 100C58.9027 100 58.4794 99.8942 58.0561 99.6473L27.9679 82.2927C26.7686 81.5873 26.3454 80.0353 27.0508 78.836L52.3065 35.0617C52.7651 34.2504 53.6117 33.7919 54.4935 33.7919Z" fill="black"/>
<path id="Vector_4" d="M63.9467 0H29.2024C27.7915 0 26.6627 1.12873 26.6627 2.53967V53.0511C26.6627 54.462 27.7915 55.5908 29.2024 55.5908H31.9537L38.7615 30.194C39.1848 28.6067 40.631 27.5132 42.2888 27.5132C42.6063 27.5132 42.9237 27.5485 43.2412 27.619L66.4864 33.8624V2.53967C66.4864 1.12873 65.3576 0 63.9467 0ZM47.6151 25.3615C47.2271 25.7495 46.698 25.9259 45.9925 25.9259C45.2871 25.9259 44.7579 25.7495 44.3699 25.3615C43.9819 24.9735 43.8056 24.4797 43.8056 23.7742C43.8056 23.0687 43.9819 22.5396 44.3699 22.1869C44.7579 21.8342 45.2871 21.6578 46.0278 21.6578C46.7333 21.6578 47.2624 21.8342 47.6504 22.2222C48.0384 22.6102 48.2147 23.1041 48.2147 23.8095C48.1795 24.4444 47.9678 24.9735 47.6151 25.3615ZM51.7421 13.933C51.3188 14.6032 50.5428 15.3439 49.3435 16.1904C48.5322 16.7901 48.0384 17.2487 47.8267 17.5308C47.6151 17.8483 47.5093 18.2363 47.5093 18.7654V19.5061H44.1936V18.589C44.1936 17.7778 44.3699 17.0723 44.6874 16.5079C45.0401 15.9083 45.6751 15.2733 46.5569 14.6031C47.4387 13.9682 48.0031 13.4744 48.2853 13.0864C48.5675 12.6984 48.7086 12.2398 48.7086 11.7813C48.7086 11.2522 48.497 10.8289 48.1089 10.5467C47.7209 10.2645 47.1565 10.1234 46.4158 10.1234C45.146 10.1234 43.735 10.5467 42.1125 11.358L40.7368 8.60667C42.6063 7.54847 44.5816 7.05467 46.6627 7.05467C48.3911 7.05467 49.7668 7.47795 50.7544 8.28924C51.7774 9.10053 52.2712 10.2292 52.2712 11.6049C52.377 12.4515 52.1654 13.2628 51.7421 13.933Z" fill="black"/>
</g>
</g>
</svg>
