<svg width="100" height="100" viewBox="0 0 100 100" fill="none" xmlns="http://www.w3.org/2000/svg">
<g id="ReturnPawn">
<path class="fractal-symbol" d="M69.1777 18.9896C69.1777 24.1849 67.3146 28.6277 63.5525 32.3182L61.1519 34.3963L60.722 34.7187L60.507 34.8262L63.8391 38.9825L67.6729 45.9692C72.4741 56.718 74.8746 69.6883 74.9463 84.9158V85.1308C74.9463 89.2153 72.5099 92.7266 67.6729 95.6288C62.8001 98.531 56.9241 100 49.9732 100C43.0222 100 37.1462 98.531 32.2734 95.6288C27.4006 92.7266 25 89.2153 25 85.1308V84.88C25.0717 69.6883 27.5081 56.718 32.2734 45.9334C33.5991 43.0312 34.9964 40.5589 36.4296 38.5525L39.4393 34.6829C38.4002 34.0022 37.4328 33.1781 36.5371 32.2823C32.8467 28.5919 31.0194 24.1491 31.0194 18.9538C31.0194 13.7585 32.8467 9.31566 36.5371 5.62523C40.2275 1.86314 44.7062 0 49.9732 0C55.2401 0 59.7546 1.86314 63.5167 5.62523C67.3146 9.31566 69.1777 13.7943 69.1777 18.9896ZM38.0061 68.9H33.2408L40.55 79.8997L47.8592 68.9H43.488C44.1688 64.6005 47.895 61.34 52.3737 61.34C57.354 61.34 61.3669 65.3887 61.4028 70.369C61.4028 71.7664 61.0444 73.0562 60.4712 74.2386L65.8097 75.5643C66.4188 73.952 66.7772 72.1963 66.7772 70.369C66.7772 62.4149 60.3278 55.9656 52.3737 55.9656C44.8854 55.9298 38.7227 61.6267 38.0061 68.9Z" fill="black"/>
</g>
</svg>
